<mxfile host="app.diagrams.net" modified="2022-11-04T07:34:18.365Z" agent="5.0 (Windows NT 10.0; Win64; x64) AppleWebKit/537.36 (KHTML, like Gecko) Chrome/107.0.0.0 Safari/537.36" etag="RlqDEEF-820LFxRjVAhb" version="20.5.1" type="github">
  <diagram id="vHHTRy6oj6F_zs_hj-PX" name="architecture">
    <mxGraphModel dx="1185" dy="728" grid="1" gridSize="10" guides="1" tooltips="1" connect="1" arrows="1" fold="1" page="1" pageScale="1" pageWidth="1169" pageHeight="827" math="0" shadow="0">
      <root>
        <mxCell id="0" />
        <mxCell id="1" parent="0" />
        <mxCell id="7K3nJ44wm9ZJKXJSP0wh-1" value="logback-core" style="rounded=0;whiteSpace=wrap;html=1;" vertex="1" parent="1">
          <mxGeometry x="210" y="260" width="200" height="40" as="geometry" />
        </mxCell>
        <object label="logback-classic" 備考="log4jの改善版に相当" id="7K3nJ44wm9ZJKXJSP0wh-2">
          <mxCell style="rounded=0;whiteSpace=wrap;html=1;" vertex="1" parent="1">
            <mxGeometry x="200" y="140" width="100" height="40" as="geometry" />
          </mxCell>
        </object>
        <mxCell id="7K3nJ44wm9ZJKXJSP0wh-3" value="" style="endArrow=block;html=1;rounded=0;exitX=0.5;exitY=1;exitDx=0;exitDy=0;endFill=0;" edge="1" parent="1" source="7K3nJ44wm9ZJKXJSP0wh-2">
          <mxGeometry width="50" height="50" relative="1" as="geometry">
            <mxPoint x="280" y="290" as="sourcePoint" />
            <mxPoint x="250" y="260" as="targetPoint" />
          </mxGeometry>
        </mxCell>
        <object label="logback-access" 備考="・・HTTPアクセスのログ機能を提供するために、サーブレット コンテナーと統合" id="7K3nJ44wm9ZJKXJSP0wh-5">
          <mxCell style="rounded=0;whiteSpace=wrap;html=1;" vertex="1" parent="1">
            <mxGeometry x="320" y="140" width="100" height="40" as="geometry" />
          </mxCell>
        </object>
        <mxCell id="7K3nJ44wm9ZJKXJSP0wh-6" value="" style="endArrow=block;html=1;rounded=0;exitX=0.5;exitY=1;exitDx=0;exitDy=0;entryX=0.801;entryY=-0.061;entryDx=0;entryDy=0;entryPerimeter=0;endFill=0;" edge="1" source="7K3nJ44wm9ZJKXJSP0wh-5" parent="1" target="7K3nJ44wm9ZJKXJSP0wh-1">
          <mxGeometry width="50" height="50" relative="1" as="geometry">
            <mxPoint x="430" y="290" as="sourcePoint" />
            <mxPoint x="421" y="261" as="targetPoint" />
          </mxGeometry>
        </mxCell>
        <mxCell id="7K3nJ44wm9ZJKXJSP0wh-9" value="ドキュメント上で&quot;logback&quot;という記述はこれを指す" style="rounded=0;whiteSpace=wrap;html=1;align=left;verticalAlign=top;" vertex="1" parent="1">
          <mxGeometry x="40" y="80" width="120" height="60" as="geometry" />
        </mxCell>
        <mxCell id="7K3nJ44wm9ZJKXJSP0wh-10" value="" style="endArrow=classic;dashed=1;html=1;rounded=0;exitX=0.5;exitY=1;exitDx=0;exitDy=0;entryX=0;entryY=0.5;entryDx=0;entryDy=0;endFill=1;" edge="1" parent="1" source="7K3nJ44wm9ZJKXJSP0wh-9" target="7K3nJ44wm9ZJKXJSP0wh-2">
          <mxGeometry width="50" height="50" relative="1" as="geometry">
            <mxPoint x="310" y="230" as="sourcePoint" />
            <mxPoint x="360" y="180" as="targetPoint" />
          </mxGeometry>
        </mxCell>
        <mxCell id="7K3nJ44wm9ZJKXJSP0wh-11" value="Logbackの主な構成クラス" style="rounded=0;whiteSpace=wrap;html=1;spacing=3;" vertex="1" parent="1">
          <mxGeometry x="635" y="100" width="170" height="30" as="geometry" />
        </mxCell>
        <mxCell id="7K3nJ44wm9ZJKXJSP0wh-12" value="&lt;p style=&quot;margin:0px;margin-top:4px;text-align:center;&quot;&gt;&lt;b&gt;Logger&lt;/b&gt;&lt;/p&gt;&lt;hr size=&quot;1&quot;&gt;&lt;div style=&quot;height:2px;&quot;&gt;&lt;/div&gt;" style="verticalAlign=top;align=left;overflow=fill;fontSize=12;fontFamily=Helvetica;html=1;" vertex="1" parent="1">
          <mxGeometry x="500" y="220" width="140" height="60" as="geometry" />
        </mxCell>
        <mxCell id="7K3nJ44wm9ZJKXJSP0wh-13" value="&lt;p style=&quot;margin:0px;margin-top:4px;text-align:center;&quot;&gt;&lt;b&gt;Appender&lt;/b&gt;&lt;/p&gt;&lt;hr size=&quot;1&quot;&gt;&lt;div style=&quot;height:2px;&quot;&gt;&lt;/div&gt;" style="verticalAlign=top;align=left;overflow=fill;fontSize=12;fontFamily=Helvetica;html=1;" vertex="1" parent="1">
          <mxGeometry x="650" y="220" width="140" height="60" as="geometry" />
        </mxCell>
        <mxCell id="7K3nJ44wm9ZJKXJSP0wh-14" value="&lt;p style=&quot;margin:0px;margin-top:4px;text-align:center;&quot;&gt;&lt;b&gt;Layout&lt;/b&gt;&lt;/p&gt;&lt;hr size=&quot;1&quot;&gt;&lt;div style=&quot;height:2px;&quot;&gt;&lt;/div&gt;" style="verticalAlign=top;align=left;overflow=fill;fontSize=12;fontFamily=Helvetica;html=1;" vertex="1" parent="1">
          <mxGeometry x="800" y="220" width="140" height="60" as="geometry" />
        </mxCell>
        <mxCell id="7K3nJ44wm9ZJKXJSP0wh-15" value="" style="endArrow=none;html=1;rounded=0;entryX=0.5;entryY=1;entryDx=0;entryDy=0;exitX=0.5;exitY=0;exitDx=0;exitDy=0;" edge="1" parent="1" source="7K3nJ44wm9ZJKXJSP0wh-12" target="7K3nJ44wm9ZJKXJSP0wh-11">
          <mxGeometry width="50" height="50" relative="1" as="geometry">
            <mxPoint x="550" y="270" as="sourcePoint" />
            <mxPoint x="600" y="220" as="targetPoint" />
          </mxGeometry>
        </mxCell>
        <mxCell id="7K3nJ44wm9ZJKXJSP0wh-16" value="" style="endArrow=none;html=1;rounded=0;entryX=0.5;entryY=1;entryDx=0;entryDy=0;exitX=0.5;exitY=0;exitDx=0;exitDy=0;" edge="1" parent="1" source="7K3nJ44wm9ZJKXJSP0wh-14" target="7K3nJ44wm9ZJKXJSP0wh-11">
          <mxGeometry width="50" height="50" relative="1" as="geometry">
            <mxPoint x="580" y="230" as="sourcePoint" />
            <mxPoint x="730" y="140" as="targetPoint" />
          </mxGeometry>
        </mxCell>
        <mxCell id="7K3nJ44wm9ZJKXJSP0wh-17" value="" style="endArrow=none;html=1;rounded=0;entryX=0.5;entryY=1;entryDx=0;entryDy=0;exitX=0.5;exitY=0;exitDx=0;exitDy=0;" edge="1" parent="1" source="7K3nJ44wm9ZJKXJSP0wh-13" target="7K3nJ44wm9ZJKXJSP0wh-11">
          <mxGeometry width="50" height="50" relative="1" as="geometry">
            <mxPoint x="880" y="230" as="sourcePoint" />
            <mxPoint x="730" y="140" as="targetPoint" />
          </mxGeometry>
        </mxCell>
      </root>
    </mxGraphModel>
  </diagram>
</mxfile>
